<?xml version="1.0" encoding="UTF-8" standalone="no"?>
<!-- Created with Inkscape (http://www.inkscape.org/) -->

<svg
   xmlns:dc="http://purl.org/dc/elements/1.1/"
   xmlns:cc="http://creativecommons.org/ns#"
   xmlns:rdf="http://www.w3.org/1999/02/22-rdf-syntax-ns#"
   xmlns:svg="http://www.w3.org/2000/svg"
   xmlns="http://www.w3.org/2000/svg"
   xmlns:sodipodi="http://sodipodi.sourceforge.net/DTD/sodipodi-0.dtd"
   xmlns:inkscape="http://www.inkscape.org/namespaces/inkscape"
   width="396.46741"
   height="338.55231"
   id="svg3008"
   version="1.1"
   inkscape:version="0.48.5 r10040"
   sodipodi:docname="New document 3">
  <defs
     id="defs3010" />
  <sodipodi:namedview
     id="base"
     pagecolor="#ffffff"
     bordercolor="#666666"
     borderopacity="1.0"
     inkscape:pageopacity="0.0"
     inkscape:pageshadow="2"
     inkscape:zoom="1"
     inkscape:cx="476.58205"
     inkscape:cy="-8.1524186"
     inkscape:document-units="px"
     inkscape:current-layer="layer1"
     showgrid="false"
     fit-margin-top="5"
     fit-margin-bottom="5"
     fit-margin-right="5"
     fit-margin-left="5"
     inkscape:window-width="1280"
     inkscape:window-height="972"
     inkscape:window-x="-8"
     inkscape:window-y="-8"
     inkscape:window-maximized="1" />
  <metadata
     id="metadata3013">
    <rdf:RDF>
      <cc:Work
         rdf:about="">
        <dc:format>image/svg+xml</dc:format>
        <dc:type
           rdf:resource="http://purl.org/dc/dcmitype/StillImage" />
        <dc:title></dc:title>
      </cc:Work>
    </rdf:RDF>
  </metadata>
  <g
     inkscape:label="Layer 1"
     inkscape:groupmode="layer"
     id="layer1"
     transform="translate(101.58205,-25.65746)">
    <path
       id="path0"
       d="m 237.04639,265.46875 c -0.61858,0.27349 -2.93951,2.20163 -5.15817,4.28567 -2.21782,2.08322 -4.8088,4.34959 -5.75797,5.03632 -1.81394,1.31211 -2.15565,1.99118 -1.16556,2.31665 0.32802,0.10821 1.11698,0.42772 1.75344,0.7106 3.71994,1.65291 14.97346,-3.47712 16.0317,-7.30867 0.55633,-2.01503 -1.16047,-5.19224 -2.81595,-5.21097 -0.21983,-0.002 -0.70631,-0.0775 -1.08121,-0.16615 -0.3749,-0.0886 -1.18771,0.063 -1.80628,0.33655 m -96.9109,20.10947 c -12.22228,2.05763 -19.67921,10.61024 -18.01008,20.65815 1.08802,6.55463 5.32344,11.22969 14.74001,16.2711 1.45269,0.7779 3.82985,2.04912 5.28254,2.82531 8.38988,4.48165 11.746,8.59522 11.73663,14.38643 -0.0205,12.78972 -17.13249,17.47585 -29.13325,7.97834 -1.58306,-1.25247 -1.3675,-1.50636 -2.56374,3.02554 l -0.99686,3.77617 0.89377,0.51632 c 2.40952,1.39221 8.93347,3.05707 14.46225,3.69182 12.27511,1.40754 23.38634,-4.21752 26.77655,-13.55655 3.89034,-10.71588 -0.86651,-19.80443 -14.27396,-27.27583 -2.56715,-1.43054 -3.83666,-2.13176 -6.81618,-3.7668 -10.29757,-5.64891 -12.9039,-11.14618 -8.44867,-17.81751 4.79689,-7.18342 17.69994,-7.74746 24.74703,-1.08207 0.81454,0.77108 1.1332,0.0869 2.98124,-6.41148 0.11245,-0.39534 -0.3979,-0.72081 -1.98096,-1.26099 -6.59467,-2.25446 -13.49607,-2.95056 -19.39632,-1.95795 m -97.652143,0.15335 c -12.910725,2.04998 -22.847872,11.83717 -25.973958,25.58032 -0.904839,3.9781 -1.056498,5.52452 -1.050534,10.66732 0.0239,20.04813 9.724999,33.26727 26.813186,36.53649 19.473013,3.72675 35.805438,-7.83095 39.602914,-28.02392 0.510678,-6.5223 0.700511,-13.27427 -0.651801,-19.52071 -3.829843,-17.72379 -19.946724,-28.22328 -38.739807,-25.2395 m -112.256685,0.87162 c -0.01277,0 -0.05115,15.83827 -0.08521,35.19625 l -0.06221,35.19624 5.793763,-0.0929 c 3.619394,-0.0579 5.774167,-0.22067 5.740937,-0.43368 -0.218974,-1.40159 -0.495034,-35.9554 -0.287131,-35.9554 0.576809,0 14.518486,14.76812 22.179876,23.49456 2.046553,2.33114 4.56429,5.17433 5.595242,6.31775 1.030945,1.14341 2.771639,3.10903 3.869051,4.36662 l 1.994576,2.28768 6.212957,0 c 3.417469,0 6.293056,-0.0801 6.390176,-0.17722 0.09798,-0.0971 -4.450975,-4.81308 -10.107561,-10.47989 -8.643776,-8.65912 -16.980831,-17.32163 -19.696226,-20.46304 -0.354447,-0.40984 -1.36068,-1.51747 -2.236563,-2.46151 -0.875883,-0.94404 -1.959662,-2.1275 -2.408675,-2.63105 l -0.816229,-0.91422 1.301882,-1.45867 c 8.38647,-9.39952 16.430422,-17.7042 25.484033,-26.31048 2.94119,-2.79635 5.297887,-5.1343 5.236536,-5.19564 -0.06128,-0.0613 -2.576514,-0.1457 -5.588422,-0.18745 l -5.477662,-0.0758 -4.52424,4.93067 c -5.372865,5.85595 -26.923955,27.59448 -27.356774,27.59448 -0.228348,0 -0.0064,-28.76091 0.246226,-31.94833 0.04002,-0.50185 -1.814808,-0.59898 -11.398372,-0.59898 m 279.343668,8.69065 c 0.34077,11.28761 0.34077,41.69889 0,52.91322 l -0.26671,8.7784 20.05242,-0.0877 20.05149,-0.0878 -0.0681,-2.72648 c -0.0376,-1.49956 -0.0732,-2.80315 -0.0793,-2.89687 -0.007,-0.0937 -6.2368,-0.11588 -13.84537,-0.0477 -8.47334,0.075 -13.95871,-0.002 -14.15808,-0.20192 -0.38086,-0.38086 -0.46603,-27.56361 -0.46603,-27.56361 l 1.69459,-0.002 4.70425,0.0121 c 3.41659,0.0895 9.20187,0.2096 12.85704,0.26583 l 6.64578,0.10225 0,-2.89689 0,-2.89688 -12.9508,0 -12.95086,0 0.0666,-12.2291 c 0.0357,-6.72588 0.15254,-12.83574 0.25817,-13.11179 0.16617,-0.43198 2.03804,-0.10395 13.62045,0 l 13.42705,0.12099 0.13718,-2.89688 c 0.0758,-1.59328 0.1048,-2.94545 0.0648,-3.00594 -0.0402,-0.0596 -8.84403,-0.13632 -19.5642,-0.1704 l -19.4917,-0.0614 0.26238,8.69065 m -154.557974,-3.7132 c 10.291601,3.37828 16.277066,14.43669 16.321367,30.15653 0.05621,19.67578 -8.529605,31.67483 -22.652753,31.65865 -12.467668,-0.0136 -19.870042,-8.78352 -21.973679,-26.0353 -2.101091,-17.22876 4.830968,-32.06932 16.861536,-36.10109 1.994589,-0.66799 9.031452,-0.47117 11.443529,0.32121"
       inkscape:connector-curvature="0"
       style="fill:#898989;fill-rule:evenodd;stroke:none;display:block;fill-opacity:1"
       sodipodi:nodetypes="cscccccsccccccccccccscccccccsccccccscccscsccscccsccccscccscccccccsccscccscccccccccccccccccccc" />
    <path
       id="path1"
       d="M 157.88342,31.015334 C 143.4583,33.593295 126.72353,45.612456 98.690129,73.530687 68.976137,103.12139 67.473314,120.56144 91.944885,151.78179 c 3.451012,4.40287 11.059995,13.72055 12.323155,15.08922 0.25764,0.27892 1.94319,2.18548 3.74558,4.23748 7.49914,8.53276 10.89423,12.21043 18.72789,20.28497 17.22707,17.75583 32.69868,31.98637 44.63638,41.05803 19.8313,15.0673 40.30169,14.08611 61.94234,-2.97042 6.25391,-4.9288 24.34674,-21.44346 34.79863,-31.76127 23.26531,-22.96949 27.54307,-41.57302 14.44707,-62.81823 -3.26624,-5.29637 -15.73121,-21.46935 -18.36144,-23.82219 -0.14377,-0.1285 -1.30311,-1.38959 -2.57623,-2.80307 C 229.21515,72.296498 196.75914,42.216695 182.78437,35.206008 175.82944,31.716601 164.56576,29.82098 157.88342,31.015334 m -196.667279,5.329233 c -29.559201,1.220257 -45.119675,10.505074 -51.657216,30.825906 -8.364884,25.995714 -8.125235,122.426987 0.358484,144.497997 5.303324,13.79623 15.787146,22.56108 31.865876,26.6412 12.417017,3.14972 63.0567023,3.1597 79.135432,0.014 19.041428,-3.72543 30.969168,-14.5921 35.071218,-31.95344 C 61.579841,182.71136 61.436051,100.3652 55.757271,73.303645 51.268779,51.91301 39.140334,40.859076 16.470146,37.496189 6.7532287,36.055795 -18.846721,35.521867 -38.783859,36.34466"
       inkscape:connector-curvature="0"
       style="fill:#4f86c6;fill-rule:evenodd;stroke:none;display:block;fill-opacity:1" />
  </g>
</svg>
